<svg xmlns="http://www.w3.org/2000/svg" width="48.681" height="48.681" viewBox="0 0 48.681 48.681"><defs><style>.a{fill:#00bf5a;}</style></defs><path class="a" d="M56.681,32.341A24.341,24.341,0,1,1,32.341,8,24.336,24.336,0,0,1,56.681,32.341ZM42.587,29.5l-7.106,7.41V18.993a2.35,2.35,0,0,0-2.356-2.356h-1.57A2.35,2.35,0,0,0,29.2,18.993V36.914L22.094,29.5a2.358,2.358,0,0,0-3.366-.039l-1.07,1.08a2.346,2.346,0,0,0,0,3.327L30.672,46.9A2.346,2.346,0,0,0,34,46.9L47.024,33.872a2.346,2.346,0,0,0,0-3.327l-1.07-1.08A2.358,2.358,0,0,0,42.587,29.5Z" transform="translate(-8 -8)"/></svg>