<svg xmlns="http://www.w3.org/2000/svg" width="43.659" height="28.167" viewBox="0 0 43.659 28.167"><defs><style>.a{fill:#5055a0;}.b{fill:#e5646e;}.c{fill:#db4655;}.d{fill:#3f3f8f;}.e{fill:#f2f2f6;}.f{fill:#e1e1e6;}</style></defs><g transform="translate(0 -90.839)"><path class="a" d="M24.143,90.839H11l-.514,1.408v24.712a1.408,1.408,0,0,0,1.408,1.408H24.143l1.643-1.474V92.952Z" transform="translate(-9.59 0)"/><path class="b" d="M323.707,118.353h13.145l1.408-.755V92.247a1.408,1.408,0,0,0-1.408-1.408H323.707l-1.643,2.113v23.942Z" transform="translate(-294.601 0)"/><path class="c" d="M344.137,404.645H328.489l1.1,1.408h13.145A1.408,1.408,0,0,0,344.137,404.645Z" transform="translate(-300.478 -287.047)"/><path class="d" d="M1.408,113.373V90.839A1.408,1.408,0,0,0,0,92.247V117.6a1.408,1.408,0,0,0,1.408,1.408H14.553l1.1-1.408H5.634a4.225,4.225,0,0,1-4.225-4.225Z" transform="translate(0 0)"/><path class="e" d="M172.088,118.367h12.023l1.109-.769V90.839H170.667V117.6Z" transform="translate(-156.114 0)"/><path class="f" d="M170.667,404.645H185.22v1.408H170.667Z" transform="translate(-156.114 -287.047)"/></g></svg>