<svg xmlns="http://www.w3.org/2000/svg" width="43.5" height="28.065" viewBox="0 0 43.5 28.065"><defs><style>.a{fill:#5055a0;}.b{fill:#3f3f8f;}.c{fill:#e5646e;}.d{fill:#db4655;}.e{fill:#f2f2f6;}.f{fill:#e1e1e6;}</style></defs><g transform="translate(0 -90.839)"><path class="a" d="M47.395,90.839H33.036l-1.4,1.09h-4.21l-1.4-1.09H11.661L8.5,92.242v25.911H48.531l2.747-1.755v-8.019l-1.126-1.4v-4.21l1.126-1.4V93.344Z" transform="translate(-7.778 0)"/><path class="b" d="M38.317,144.48H5.613a4.21,4.21,0,0,1-4.21-4.21V120.721l-1.4-.4v8.019l.765.393v6.16L0,135.359v8.019l3.883,2.5H18.242l1.4-.959h4.21l1.4.959H39.617Z" transform="translate(0 -26.98)"/><path class="c" d="M59.651,90.89l-1.726.381L19.073,116.239l2.58,1.67L60.521,92.79l.334-1.006A1.4,1.4,0,0,0,59.651,90.89Z" transform="translate(-17.453 -0.047)"/><path class="d" d="M3.248,384.55l-2.139,2.214a1.4,1.4,0,0,0,1.206.893l3.571-1.469A4.2,4.2,0,0,1,3.248,384.55Z" transform="translate(-1.015 -268.757)"/><path class="c" d="M5.733,91.5l-1.5-.255c-.775,0-1.168.742-1.168,1.517v.267L43.434,118.99l2.74-1.434Z" transform="translate(-2.802 -0.376)"/><path class="d" d="M460.219,404.645h-4.286l1.678.821,1.785.578a1.4,1.4,0,0,0,1.205-.892Z" transform="translate(-417.197 -287.145)"/><path class="d" d="M2.316,90.894a1.411,1.411,0,0,0-1.2.891l1.309,1.68V90.946Z" transform="translate(-1.018 -0.05)"/><path class="c" d="M51.049,102.766l-18.944-.7-.7-11.226h-4.21l-.7,11.226H8.25v5.613H26.493v10.561h5.613V107.678l18.944-.7Z" transform="translate(-7.549 0)"/><path class="d" d="M0,227.879l1.4.7v-5.613l-1.4.7Z" transform="translate(0 -120.903)"/><path class="d" d="M227.879,406.048h-4.21l-.7-1.4h5.613Z" transform="translate(-204.024 -287.145)"/><path class="e" d="M300.419,280.774H281.476a.7.7,0,0,0-.7.7V291.3l.662.662.741-.662v-7.861l12.184,7.861,2.413.727.176-.727-14.138-9.121H285.4l14.137,9.121.668.264.212-.264v-1.1l-12.43-8.019h12.43Z" transform="translate(-256.919 -173.798)"/><path class="e" d="M26.493,280.774H8.952l-.7.7.7.7H19.979L9.407,289l-.52,1.127H10.25l12.317-7.947h2.589l-13.628,8.792.194.816,1.884-.487,12.184-7.861V291.3l.676.653.727-.653v-9.823A.7.7,0,0,0,26.493,280.774Z" transform="translate(-7.549 -173.798)"/><path class="e" d="M25.791,90.839V100.1L11.432,90.839H8.952c-.032,0-.074,0-.106,0l16.31,10.519H22.567L8.952,92.58l-.44.624.44,1.046,11.026,7.114H8.952l-.7.7.7.7h17.54a.7.7,0,0,0,.7-.7V90.839Z" transform="translate(-7.549 0)"/><path class="f" d="M0,214.71H1.4v1.4H0Z" transform="translate(0 -113.347)"/><path class="f" d="M1.4,102.229l-1.309-.845a1.4,1.4,0,0,0-.095.507v1.1l1.4.905Z" transform="translate(0 -9.649)"/><path class="e" d="M300.419,92.242a1.393,1.393,0,0,0-.1-.505L285.4,101.363h-2.589l16.306-10.52c-.032,0-.07,0-.1,0h-2.48L282.177,100.1V90.839h-1.4v11.226a.7.7,0,0,0,.7.7h18.944v-1.4H287.99l12.43-8.019Z" transform="translate(-256.919 0)"/><g transform="translate(0 106.976)"><path class="f" d="M0,280.774H1.4v1.4H0Z" transform="translate(0 -280.774)"/><path class="f" d="M2.7,378.7a4.22,4.22,0,0,1-.843-1.126L0,378.769v1.1a1.4,1.4,0,0,0,.094.507Z" transform="translate(0 -369.346)"/><path class="f" d="M214.71,404.645h1.4v1.4h-1.4Z" transform="translate(-196.468 -394.121)"/><path class="f" d="M280.774,404.645h1.4v1.4h-1.4Z" transform="translate(-256.919 -394.121)"/><path class="f" d="M17.889,402.505l2.175-1.4h-.445a4.2,4.2,0,0,1-1.634-.329L15.307,402.5c.032,0,.071,0,.1,0Z" transform="translate(-14.007 -390.578)"/><path class="f" d="M280.774,404.645h1.4v1.4h-1.4Z" transform="translate(-256.919 -394.121)"/><path class="f" d="M502.421,405.152a1.4,1.4,0,0,0,.094-.507h-.881Z" transform="translate(-459.016 -394.121)"/><path class="f" d="M443.289,404.645H440.7l2.175,1.4h2.479c.032,0,.072,0,.1,0Z" transform="translate(-403.259 -394.121)"/></g></g></svg>