<svg xmlns="http://www.w3.org/2000/svg" width="43.5" height="28.064" viewBox="0 0 43.5 28.064"><defs><style>.a{fill:#e5646e;}.b{fill:#f2f2f6;}.c{fill:#db4655;}.d{fill:#5055a0;}.e{fill:#3f3f8f;}.f{fill:#fff;}.g{fill:#e1e1e6;}</style></defs><g transform="translate(0 -90.839)"><path class="a" d="M50.332,90.839H30.687L9,105.848v12.475H50.332l1.4-.823v-2.606l-.913-.868v-2.464l.913-.677v-4.009l-.821-.787v-2.521l.821-.7V98.857l-.821-.726V95.922l.821-1.074V92.242A1.4,1.4,0,0,0,50.332,90.839Z" transform="translate(-8.235)"/><path class="b" d="M256.333,138.028h21.722v4.009H256.333Z" transform="translate(-234.555 -43.18)"/><path class="b" d="M256,232.4l.7,4.009H277.75V232.4Z" transform="translate(-234.25 -129.538)"/><path class="c" d="M1.4,278.145V271l-1.4.73v4.009l.595.507v2.634L0,279.749v2.606a1.4,1.4,0,0,0,1.4,1.4H42.1a1.4,1.4,0,0,0,1.4-1.4H5.613a4.21,4.21,0,0,1-4.21-4.21Z" transform="translate(0 -164.854)"/><path class="d" d="M27.942,90.839H6.893L6,92.242l.893,14.634H27.942Z" transform="translate(-5.49)"/><path class="e" d="M1.4,90.839a1.4,1.4,0,0,0-1.4,1.4v14.634H1.4Z"/><path class="f" d="M25.52,112.544a.7.7,0,0,1-.007-1.4h.007a.7.7,0,1,1,0,1.4Z" transform="translate(-22.707 -18.577)"/><path class="f" d="M25.52,178.609a.7.7,0,0,1-.007-1.4h.007a.7.7,0,1,1,0,1.4Z" transform="translate(-22.707 -79.029)"/><path class="f" d="M25.52,244.673a.7.7,0,0,1-.007-1.4h.007a.7.7,0,1,1,0,1.4Z" transform="translate(-22.707 -139.48)"/><path class="b" d="M25.52,145.577a.7.7,0,0,1-.007-1.4h.007a.7.7,0,1,1,0,1.4Z" transform="translate(-22.707 -48.804)"/><path class="b" d="M25.52,211.641a.7.7,0,0,1-.007-1.4h.007a.7.7,0,1,1,0,1.4Z" transform="translate(-22.707 -109.255)"/><path class="f" d="M223.713,112.544a.7.7,0,0,1-.007-1.4h.007a.7.7,0,1,1,0,1.4Z" transform="translate(-204.061 -18.577)"/><path class="f" d="M223.713,178.609a.7.7,0,0,1-.007-1.4h.007a.7.7,0,1,1,0,1.4Z" transform="translate(-204.061 -79.029)"/><path class="f" d="M223.713,244.673a.7.7,0,0,1-.007-1.4h.007a.7.7,0,1,1,0,1.4Z" transform="translate(-204.061 -139.48)"/><g transform="translate(6.318 92.564)"><path class="b" d="M223.713,145.577a.7.7,0,0,1-.007-1.4h.007a.7.7,0,1,1,0,1.4Z" transform="translate(-210.379 -141.367)"/><path class="b" d="M223.713,211.641a.7.7,0,0,1-.007-1.4h.007a.7.7,0,1,1,0,1.4Z" transform="translate(-210.379 -201.819)"/><path class="b" d="M75.068,112.544a.7.7,0,0,1-.007-1.4h.007a.7.7,0,1,1,0,1.4Z" transform="translate(-74.363 -111.141)"/><path class="b" d="M75.068,178.609a.7.7,0,0,1-.007-1.4h.007a.7.7,0,1,1,0,1.4Z" transform="translate(-74.363 -171.593)"/><path class="b" d="M75.068,244.673a.7.7,0,0,1-.007-1.4h.007a.7.7,0,1,1,0,1.4Z" transform="translate(-74.363 -232.044)"/></g><path class="f" d="M75.068,145.577a.7.7,0,0,1-.007-1.4h.007a.7.7,0,1,1,0,1.4Z" transform="translate(-68.045 -48.804)"/><path class="f" d="M75.068,211.641a.7.7,0,0,1-.007-1.4h.007a.7.7,0,1,1,0,1.4Z" transform="translate(-68.045 -109.255)"/><path class="f" d="M50.294,129.06a.7.7,0,0,1-.007-1.4h.007a.7.7,0,1,1,0,1.4Z" transform="translate(-45.376 -33.69)"/><path class="f" d="M50.294,195.125a.7.7,0,0,1-.007-1.4h.007a.7.7,0,1,1,0,1.4Z" transform="translate(-45.376 -94.142)"/><path class="b" d="M50.294,162.093a.7.7,0,0,1-.007-1.4h.007a.7.7,0,1,1,0,1.4Z" transform="translate(-45.376 -63.916)"/><path class="b" d="M50.294,228.157a.7.7,0,0,1-.007-1.4h.007a.7.7,0,1,1,0,1.4Z" transform="translate(-45.376 -124.368)"/><path class="f" d="M124.617,112.544a.7.7,0,0,1-.007-1.4h.007a.7.7,0,1,1,0,1.4Z" transform="translate(-113.384 -18.577)"/><path class="f" d="M124.617,178.609a.7.7,0,0,1-.007-1.4h.007a.7.7,0,1,1,0,1.4Z" transform="translate(-113.384 -79.029)"/><path class="f" d="M124.617,244.673a.7.7,0,0,1-.007-1.4h.007a.7.7,0,1,1,0,1.4Z" transform="translate(-113.384 -139.48)"/><path class="b" d="M124.617,145.577a.7.7,0,0,1-.007-1.4h.007a.7.7,0,1,1,0,1.4Z" transform="translate(-113.384 -48.804)"/><path class="b" d="M124.617,211.641a.7.7,0,0,1-.007-1.4h.007a.7.7,0,1,1,0,1.4Z" transform="translate(-113.384 -109.255)"/><path class="b" d="M99.842,129.06a.7.7,0,0,1-.007-1.4h.007a.7.7,0,1,1,0,1.4Z" transform="translate(-90.714 -33.69)"/><path class="b" d="M99.842,195.125a.7.7,0,0,1-.007-1.4h.007a.7.7,0,1,1,0,1.4Z" transform="translate(-90.714 -94.142)"/><path class="f" d="M99.842,162.093a.7.7,0,0,1-.007-1.4h.007a.7.7,0,1,1,0,1.4Z" transform="translate(-90.714 -63.916)"/><path class="f" d="M99.842,228.157a.7.7,0,0,1-.007-1.4h.007a.7.7,0,1,1,0,1.4Z" transform="translate(-90.714 -124.368)"/><path class="b" d="M174.084,112.544a.7.7,0,0,1-.007-1.4h.007a.7.7,0,1,1,0,1.4Z" transform="translate(-158.649 -18.577)"/><path class="b" d="M174.084,178.609a.7.7,0,0,1-.007-1.4h.007a.7.7,0,1,1,0,1.4Z" transform="translate(-158.649 -79.029)"/><path class="b" d="M174.084,244.673a.7.7,0,0,1-.007-1.4h.007a.7.7,0,1,1,0,1.4Z" transform="translate(-158.649 -139.48)"/><path class="f" d="M174.084,145.577a.7.7,0,0,1-.007-1.4h.007a.7.7,0,1,1,0,1.4Z" transform="translate(-158.649 -48.804)"/><path class="f" d="M174.084,211.641a.7.7,0,0,1-.007-1.4h.007a.7.7,0,1,1,0,1.4Z" transform="translate(-158.649 -109.255)"/><path class="f" d="M149.31,129.06a.7.7,0,0,1-.007-1.4h.007a.7.7,0,1,1,0,1.4Z" transform="translate(-135.979 -33.69)"/><path class="f" d="M149.31,195.125a.7.7,0,0,1-.007-1.4h.007a.7.7,0,1,1,0,1.4Z" transform="translate(-135.979 -94.142)"/><path class="b" d="M149.31,162.093a.7.7,0,0,1-.007-1.4h.007a.7.7,0,1,1,0,1.4Z" transform="translate(-135.979 -63.916)"/><path class="b" d="M149.31,228.157a.7.7,0,0,1-.007-1.4h.007a.7.7,0,1,1,0,1.4Z" transform="translate(-135.979 -124.368)"/><path class="b" d="M198.939,129.06a.7.7,0,0,1-.007-1.4h.007a.7.7,0,1,1,0,1.4Z" transform="translate(-181.392 -33.69)"/><path class="b" d="M198.939,195.125a.7.7,0,0,1-.007-1.4h.007a.7.7,0,1,1,0,1.4Z" transform="translate(-181.392 -94.142)"/><path class="f" d="M198.939,162.093a.7.7,0,0,1-.007-1.4h.007a.7.7,0,1,1,0,1.4Z" transform="translate(-181.392 -63.916)"/><path class="f" d="M198.939,228.157a.7.7,0,0,1-.007-1.4h.007a.7.7,0,1,1,0,1.4Z" transform="translate(-181.392 -124.368)"/><path class="b" d="M3,329.633l1.466,1.159H46.245v-4.009H4.148Z" transform="translate(-2.745 -215.898)"/><path class="g" d="M0,326.782v4.009H1.721a4.2,4.2,0,0,1-.318-1.6v-2.406H0Z" transform="translate(0 -215.897)"/></g></svg>